<svg xmlns="http://www.w3.org/2000/svg" xmlns:xlink="http://www.w3.org/1999/xlink" version="1.1" x="0px" y="0px" viewBox="0 0 226.8 226.8" style="enable-background:new 0 0 226.8 226.8;" xml:space="preserve"><path d="M159.8,125.1l-12-13l1.3-23.3l-21.3-11.3l-0.2-0.1l-7.7,1l-0.1-0.1l0,0.1l-40.4,5.2l-1.3-5.3l7.1,1.1l3,1.1l4.8-4l-8.2-7.9  L84.4,65l-2.8-3.3h5.1l4.2-5.7l0.4-9.7l-16,11.5l-6,0.3L63,50.2l-6.9-3.5l4.6,12.2l5.4,3.8l-0.9,10.1l-2.6,25.6l1.3,5.2l-0.3,7.7  l8.8,11.8l0.6,37.6L69.6,178l5.8,0.4l2.1-8l0.1,0l0-0.1l0.3-1.1l-0.7-12.4l3.6-26.7l2.3-8.8l3.2,2.8l1.9,27.1l0.3,21.5l-1.1,7.7  l6.4-0.8l-1.3-26l2.3-23.1l4-10l17.2,0.3l13.3,18.4l-12.3,30.3l-4,5.5h8.6l18.8-42.5l0.2-0.4l-4.5-5.8l0-0.1l-0.1,0l-5.7-7.3  l0.5-3.2l23.2,16.9l11.6,27.8l-1,12.3h4.9l1-11.8L159.8,125.1z M146.6,111.4l-19.7-8.1l5.4-14.8l12-0.2l0-0.6l3.6,1.9L146.6,111.4z   M127.4,78.7L143,87l-11,0.2l-10.5-7.7L127.4,78.7z M104.3,93.9L104.3,93.9l-4.2,1.8l-19.2-11l38.8-4.9l-0.8,8.4L104.4,94  L104.3,93.9z M97.8,113.9L71,98.4l8.1-13.3l20.3,11.7L97.8,113.9z M78.2,84.2l-8.3,13.6l-5.6-3.3l0.6-5.5l0.1,0l6.3-15.9l5.5,4.6  L78.2,84.2z M66.8,69.6l3.3,2.8l-4.8,12.2l1.2-11.6L66.8,69.6z M77.5,76.8L66.9,68l0.4-4.2l7.8,7.7l11,5.1l0.7,2l-1.4-0.5L77.5,76.8  z M87.7,76.8l2.6,0.2l-2,1.6L87.7,76.8z M61.8,58l-3.3-8.7l3.6,1.8l6.7,8.3l7.1-0.4L89.9,49l-0.3,6.6l-3.6,4.8h-7.3l4.4,5.2l0.3,3.6  l6.7,6.4l-3.3-0.2l-10.9-5l-8.5-8.4l0-0.1L61.8,58z M74.5,177l-3.3-0.2l2.7-13.5l2.4,7.1L74.5,177z M76.5,167l-2.2-6.4l-0.6-36.1  l5.7,6.4l-3.5,25.9L76.5,167z M79.7,129.3l-6.2-6.9l-8.7-11.6l0.3-5.9L82,120.5L79.7,129.3z M93.6,130.1l-2.3,23.5l1.3,24.9  l-3.5,0.5l0.9-6.1l-0.3-21.6l-2-27.7l-5.2-4.4l0,0.1l-17.3-15.9l-1.2-4.9l0.2-2.3l33.6,19.4l0.1,4.4L93.6,130.1z M99.1,119.2L99,115  l1.6-18.1l3.7-1.5l21,8.1l0.5-1.2l-19.7-7.6l14-5.6l0.8-8.4l10.1,7.4l-5.7,15.6l4.5,11l-13.5,4.9L99.1,119.2z M118.2,121.5l17,5.9  l-5.1,10.5L118.2,121.5z M120.9,173.8h-5.2l2.5-3.5l12.5-30.8l5.3-11.1l3.1,4L120.9,173.8z M133.9,125.6l-15.5-5.4l11.2-4.1  l-0.5,3.3L133.9,125.6z M168.5,171.5h-2.3l0.9-11.2l-11.9-28.4L131,114.2l-3.8-9.4l19.6,8.1l11.9,12.9l10.7,35.4L168.5,171.5z"></path></svg>